<?xml version="1.0" encoding="UTF-8" standalone="no"?>
<!-- Created with Inkscape (http://www.inkscape.org/) -->
<svg
   xmlns:dc="http://purl.org/dc/elements/1.1/"
   xmlns:cc="http://creativecommons.org/ns#"
   xmlns:rdf="http://www.w3.org/1999/02/22-rdf-syntax-ns#"
   xmlns:svg="http://www.w3.org/2000/svg"
   xmlns="http://www.w3.org/2000/svg"
   xmlns:xlink="http://www.w3.org/1999/xlink"
   xmlns:sodipodi="http://sodipodi.sourceforge.net/DTD/sodipodi-0.dtd"
   xmlns:inkscape="http://www.inkscape.org/namespaces/inkscape"
   width="854.07312"
   height="1094.7506"
   id="svg2"
   sodipodi:version="0.32"
   inkscape:version="0.45+devel"
   version="1.0"
   sodipodi:docname="double arrow.svg"
   inkscape:output_extension="org.inkscape.output.svg.inkscape"
   inkscape:export-filename="/home/yves/Bureau/double arrow.png"
   inkscape:export-xdpi="31.651045"
   inkscape:export-ydpi="31.651045">
  <defs
     id="defs4">
    <linearGradient
       inkscape:collect="always"
       id="linearGradient3187">
      <stop
         style="stop-color:#ffffff;stop-opacity:1;"
         offset="0"
         id="stop3189" />
      <stop
         style="stop-color:#ffffff;stop-opacity:0;"
         offset="1"
         id="stop3191" />
    </linearGradient>
    <linearGradient
       inkscape:collect="always"
       id="linearGradient3177">
      <stop
         style="stop-color:#ffffff;stop-opacity:1;"
         offset="0"
         id="stop3179" />
      <stop
         style="stop-color:#ffffff;stop-opacity:0;"
         offset="1"
         id="stop3181" />
    </linearGradient>
    <inkscape:perspective
       sodipodi:type="inkscape:persp3d"
       id="perspective27"
       inkscape:vp_x="-50 : 600 : 1"
       inkscape:vp_y="0 : 1000 : 0"
       inkscape:vp_z="700 : 600 : 1"
       inkscape:persp3d-origin="300 : 400 : 1" />
    <inkscape:perspective
       sodipodi:type="inkscape:persp3d"
       id="perspective10"
       inkscape:vp_x="-50 : 600 : 1"
       inkscape:vp_y="0 : 1000 : 0"
       inkscape:vp_z="700 : 600 : 1"
       inkscape:persp3d-origin="300 : 400 : 1" />
    <filter
       inkscape:collect="always"
       id="filter3244"
       x="-0.14390074"
       width="1.2878015"
       y="-0.083620347"
       height="1.1672407">
      <feGaussianBlur
         inkscape:collect="always"
         stdDeviation="33.223268"
         id="feGaussianBlur3246" />
    </filter>
    <clipPath
       clipPathUnits="userSpaceOnUse"
       id="clipPath3268">
      <path
         style="fill:#ffffff;fill-opacity:1;fill-rule:evenodd;stroke:#000000;stroke-width:1;stroke-linecap:butt;stroke-linejoin:miter;stroke-miterlimit:4;stroke-dasharray:none;stroke-opacity:1"
         d="M -1657.3612,428.01312 C -1662.1412,444.57236 -1442.0174,207.00237 -1306.0108,326.00816 C -1170.0042,445.01395 -1116.1683,504.51686 -1116.1683,504.51686 C -1116.1683,504.51686 -1240.841,235.33709 -1257.8418,136.1656 C -1274.8427,36.99411 -1277.6761,-14.008365 -1277.6761,-14.008365 L -1113.3348,34.16064 C -1113.3348,34.16064 -1286.1765,-178.3497 -1328.6786,-280.35466 C -1371.1807,-382.35962 -1376.8476,-439.02904 -1376.8476,-439.02904 C -1376.8476,-439.02904 -1419.3497,-246.35301 -1495.8534,-152.84845 C -1572.3571,-59.343905 -1612.6163,-1.643915 -1631.6254,23.413555 C -1594.6735,15.177735 -1610.2025,19.810945 -1510.0919,-5.690265 C -1462.0603,-17.925385 -1474.1571,-17.221645 -1403.5225,-31.596025 C -1460.3941,47.53414 -1510.2448,101.09359 -1561.0232,175.83419 C -1611.3585,249.92258 -1657.3612,428.01312 -1657.3612,428.01312 z"
         id="path3270"
         sodipodi:nodetypes="cscsccscscsczs" />
    </clipPath>
    <filter
       inkscape:collect="always"
       id="filter3435"
       x="-0.16861328"
       width="1.3372266"
       y="-0.13434985"
       height="1.2686996">
      <feGaussianBlur
         inkscape:collect="always"
         stdDeviation="57.502646"
         id="feGaussianBlur3437" />
    </filter>
    <linearGradient
       inkscape:collect="always"
       xlink:href="#linearGradient3177"
       id="linearGradient3183"
       x1="330.56308"
       y1="580.07648"
       x2="173.65022"
       y2="573.79993"
       gradientUnits="userSpaceOnUse" />
    <linearGradient
       inkscape:collect="always"
       xlink:href="#linearGradient3187"
       id="linearGradient3193"
       x1="606.72974"
       y1="554.9704"
       x2="493.06857"
       y2="542.41736"
       gradientUnits="userSpaceOnUse" />
  </defs>
  <sodipodi:namedview
     id="base"
     pagecolor="#ffffff"
     bordercolor="#666666"
     borderopacity="1.0"
     inkscape:pageopacity="0.0"
     inkscape:pageshadow="2"
     inkscape:zoom="0.91893075"
     inkscape:cx="209.36149"
     inkscape:cy="501.36447"
     inkscape:document-units="px"
     inkscape:current-layer="layer1"
     showgrid="false"
     inkscape:object-nodes="true"
     objecttolerance="1"
     inkscape:window-width="1024"
     inkscape:window-height="713"
     inkscape:window-x="0"
     inkscape:window-y="0" />
  <metadata
     id="metadata7">
    <rdf:RDF>
      <cc:Work
         rdf:about="">
        <dc:format>image/svg+xml</dc:format>
        <dc:type
           rdf:resource="http://purl.org/dc/dcmitype/StillImage" />
        <dc:title></dc:title>
        <dc:date></dc:date>
        <dc:creator>
          <cc:Agent>
            <dc:title>yves guillou</dc:title>
          </cc:Agent>
        </dc:creator>
        <dc:rights>
          <cc:Agent>
            <dc:title></dc:title>
          </cc:Agent>
        </dc:rights>
        <dc:publisher>
          <cc:Agent>
            <dc:title></dc:title>
          </cc:Agent>
        </dc:publisher>
        <dc:identifier></dc:identifier>
        <dc:source></dc:source>
        <dc:relation></dc:relation>
        <dc:language>French</dc:language>
        <dc:subject>
          <rdf:Bag />
        </dc:subject>
        <dc:coverage></dc:coverage>
        <dc:description></dc:description>
        <dc:contributor>
          <cc:Agent>
            <dc:title></dc:title>
          </cc:Agent>
        </dc:contributor>
        <cc:license
           rdf:resource="http://artlibre.org/licence.php/lalgb.html" />
      </cc:Work>
    </rdf:RDF>
  </metadata>
  <g
     inkscape:label="Calque 1"
     inkscape:groupmode="layer"
     id="layer1"
     transform="translate(279.412,1170.2752)">
    <g
       id="g3449">
      <path
         sodipodi:nodetypes="ccccscsccccscsc"
         d="M 25.165079,-157.61519 C 25.165079,-157.61519 19.028529,-210.86432 -23.473471,-312.86928 C -65.975574,-414.87424 -238.81737,-627.38458 -238.81737,-627.38458 L -74.475974,-579.21557 C -74.475974,-579.21557 -77.309474,-630.21805 -94.310274,-729.38954 C -111.31117,-828.56103 -235.98387,-1097.7408 -235.98387,-1097.7408 C -235.98387,-1097.7408 -182.14787,-1038.2379 -46.141274,-919.2321 C 89.865329,-800.22631 308.94058,-1039.1713 305.15441,-1023.3413 C 306.14823,-1024.0705 311.81523,-967.40108 354.31723,-865.39612 C 396.81933,-763.39116 569.66113,-550.88082 569.66113,-550.88082 L 405.31973,-599.04983 C 405.31973,-599.04983 408.15323,-548.04735 425.15403,-448.87586 C 442.15493,-349.70437 566.82763,-80.524602 566.82763,-80.524602 C 566.82763,-80.524602 512.99163,-140.02751 376.98503,-259.0333 C 240.97843,-378.03909 20.385079,-141.05595 25.165079,-157.61519 z"
         style="opacity:0.68615382;fill:#280b0b;fill-rule:evenodd;stroke:#000000;stroke-width:10;stroke-linecap:butt;stroke-linejoin:miter;stroke-miterlimit:4;stroke-dasharray:none;stroke-opacity:1;filter:url(#filter3435)"
         id="path3250" />
      <g
         transform="translate(1647.4013,-652.57588)"
         id="g3302">
        <g
           inkscape:transform-center-y="46.75228"
           inkscape:transform-center-x="105.21018"
           id="g3304">
          <path
             sodipodi:nodetypes="cscsccscscsczs"
             id="path3306"
             d="M -1657.3614,428.01312 C -1662.1414,444.57236 -1442.0176,207.00237 -1306.011,326.00816 C -1170.0044,445.01395 -1116.1684,504.51686 -1116.1684,504.51686 C -1116.1684,504.51686 -1240.8411,235.33709 -1257.842,136.1656 C -1274.8428,36.99411 -1277.6763,-14.00837 -1277.6763,-14.00837 L -1113.3349,34.16064 C -1113.3349,34.16064 -1286.1767,-178.3497 -1328.6788,-280.35466 C -1371.1808,-382.35962 -1376.8478,-439.02904 -1376.8478,-439.02904 C -1376.8478,-439.02904 -1419.3498,-246.35301 -1495.8536,-152.84846 C -1572.3573,-59.34391 -1612.6165,-1.64392 -1631.6256,23.41355 C -1594.6737,15.17773 -1610.2027,19.81094 -1510.0921,-5.69027 C -1462.0604,-17.92539 -1474.1573,-17.22165 -1403.5227,-31.59603 C -1460.3943,47.53414 -1510.245,101.09359 -1561.0234,175.83419 C -1611.3587,249.92258 -1657.3614,428.01312 -1657.3614,428.01312 z"
             style="fill:#71c837;fill-rule:evenodd;stroke:#000000;stroke-width:10;stroke-linecap:butt;stroke-linejoin:miter;stroke-miterlimit:4;stroke-dasharray:none;stroke-opacity:1" />
          <path
             sodipodi:nodetypes="cscsccscscsczs"
             id="path3308"
             d="M -1657.3614,428.01312 C -1662.1414,444.57236 -1442.0175,207.00237 -1306.0109,326.00816 C -1170.0043,445.01395 -1116.1683,504.51686 -1116.1683,504.51686 C -1116.1683,504.51686 -1240.841,235.33709 -1257.8419,136.1656 C -1274.8427,36.99411 -1277.6762,-14.00837 -1277.6762,-14.00837 L -1113.3348,34.16064 C -1113.3348,34.16064 -1286.1766,-178.3497 -1328.6786,-280.35466 C -1371.1807,-382.35962 -1376.8476,-439.02904 -1376.8476,-439.02904 C -1376.8476,-439.02904 -1419.3497,-246.35301 -1495.8534,-152.84846 C -1572.3573,-59.34391 -1612.6165,-1.64392 -1631.6256,23.41355 C -1594.6737,15.17773 -1610.2027,19.81094 -1510.092,-5.69027 C -1462.0603,-17.92539 -1474.1572,-17.22165 -1403.5226,-31.59603 C -1460.3942,47.53414 -1510.2448,101.09359 -1561.0234,175.83419 C -1611.3587,249.92258 -1657.3614,428.01312 -1657.3614,428.01312 z"
             style="fill:none;fill-rule:evenodd;stroke:#000000;stroke-width:20;stroke-linecap:butt;stroke-linejoin:miter;stroke-miterlimit:4;stroke-dasharray:none;stroke-opacity:1;filter:url(#filter3244)"
             clip-path="url(#clipPath3268)" />
        </g>
        <g
           id="g3310">
          <path
             sodipodi:nodetypes="cscsccscscsczs"
             id="path3312"
             d="M -1377.7868,-436.1956 C -1373.0068,-452.75484 -1593.1306,-215.18485 -1729.1372,-334.19064 C -1865.1438,-453.19643 -1918.9798,-512.69934 -1918.9798,-512.69934 C -1918.9798,-512.69934 -1794.3071,-243.51957 -1777.3062,-144.34808 C -1760.3054,-45.17659 -1757.4719,5.82589 -1757.4719,5.82589 L -1921.8133,-42.34312 C -1921.8133,-42.34312 -1748.9715,170.16722 -1706.4694,272.17218 C -1663.9674,374.17714 -1658.3004,430.84656 -1658.3004,430.84656 C -1658.3004,430.84656 -1615.7984,238.17053 -1539.2946,144.66598 C -1462.7909,51.16143 -1422.5317,-6.53856 -1403.5226,-31.59603 C -1440.4745,-23.36021 -1424.9455,-27.99342 -1525.0561,-2.49221 C -1573.0878,9.74291 -1560.9909,9.03917 -1631.6255,23.41355 C -1574.7539,-55.71662 -1524.9032,-109.27607 -1474.1248,-184.01667 C -1423.7895,-258.10506 -1377.7868,-436.1956 -1377.7868,-436.1956 z"
             style="fill:#ff5555;fill-rule:evenodd;stroke:#000000;stroke-width:10;stroke-linecap:butt;stroke-linejoin:miter;stroke-miterlimit:4;stroke-dasharray:none;stroke-opacity:1" />
          <path
             sodipodi:nodetypes="cscsccscscsczs"
             id="path3314"
             d="M -1657.3614,428.01312 C -1662.1414,444.57236 -1442.0175,207.00237 -1306.0109,326.00816 C -1170.0043,445.01395 -1116.1683,504.51686 -1116.1683,504.51686 C -1116.1683,504.51686 -1240.841,235.33709 -1257.8419,136.1656 C -1274.8427,36.99411 -1277.6762,-14.00837 -1277.6762,-14.00837 L -1113.3348,34.16064 C -1113.3348,34.16064 -1286.1766,-178.3497 -1328.6786,-280.35466 C -1371.1807,-382.35962 -1376.8476,-439.02904 -1376.8476,-439.02904 C -1376.8476,-439.02904 -1419.3497,-246.35301 -1495.8534,-152.84846 C -1572.3573,-59.34391 -1612.6165,-1.64392 -1631.6256,23.41355 C -1594.6737,15.17773 -1610.2027,19.81094 -1510.092,-5.69027 C -1462.0603,-17.92539 -1474.1572,-17.22165 -1403.5226,-31.59603 C -1460.3942,47.53414 -1510.2448,101.09359 -1561.0234,175.83419 C -1611.3587,249.92258 -1657.3614,428.01312 -1657.3614,428.01312 z"
             style="fill:none;fill-rule:evenodd;stroke:#000000;stroke-width:20;stroke-linecap:butt;stroke-linejoin:miter;stroke-miterlimit:4;stroke-dasharray:none;stroke-opacity:1;filter:url(#filter3244)"
             clip-path="url(#clipPath3268)"
             transform="matrix(-1,0,0,-1,-3035.1482,-8.18248)" />
        </g>
      </g>
    </g>
    <path
       style="fill:url(#linearGradient3183);fill-rule:evenodd;stroke:none;stroke-width:1px;stroke-linecap:butt;stroke-linejoin:miter;stroke-opacity:1;fill-opacity:1"
       d="M 337.09241,251.437 C 337.09241,251.437 221.77016,467.0992 232.23102,540.3252 C 242.69188,613.5512 267.13904,720.66655 256.83145,867.46237 C 204.68043,683.69511 65.586243,528.37172 75.318169,534.04868 C 125.53028,563.33909 196.66411,561.24691 196.66411,561.24691 C 196.66411,561.24691 177.49748,246.56389 144.02274,181.70657 C 110.548,116.84926 106.70074,178.37955 106.70074,178.37955 C 106.70074,178.37955 182.27172,268.17437 337.09241,251.437 z"
       id="path2405"
       transform="translate(-279.412,-1170.2752)"
       sodipodi:nodetypes="cscscscc" />
    <path
       style="fill:url(#linearGradient3193);fill-rule:evenodd;stroke:none;stroke-width:1px;stroke-linecap:butt;stroke-linejoin:miter;stroke-opacity:1;fill-opacity:1"
       d="M 552.33324,159.11404 C 552.33324,159.11404 585.80798,309.75038 573.25495,422.72764 C 560.70193,535.70489 555.01531,753.47386 555.01531,753.47386 C 555.01531,753.47386 390.96862,750.63786 344.94085,809.21866 C 298.91308,867.79945 326.37873,860.42742 326.37873,860.42742 C 326.37873,860.42742 535.59587,600.99817 543.96455,525.68 C 552.33324,450.36183 489.5681,446.17749 485.38376,383.41234 C 481.19941,320.6472 548.1489,175.85141 552.33324,159.11404 z"
       id="path3185"
       transform="translate(-279.412,-1170.2752)"
       sodipodi:nodetypes="cscscssc" />
  </g>
</svg>
